# xmcd
# 
# Track frame offsets:
#     150
#     16196
#     30365
#     46446
#     60515
#     72562
#     85973
#     98187
#     112274
#     122909
# 
# Disc length: 1855
# 
# Revision: 0
# Processed by: cddbd v1.5.2PL0 Copyright (c) Steve Scherf et al.
# Submitted via: BonkEnc v1.0.6
# 
DISCID=85073d0a
DTITLE=Merle Haggard - Looking Back
DYEAR=0
DGENRE=Country
TTITLE0=It's Not Love (But It's Not Bad)
TTITLE1=I'm A Lonesome Fugitive
TTITLE2=Someday When Things Are Good
TTITLE3=Always Wanting You
TTITLE4=Things Aren't Funny Anymore
TTITLE5=My Favorite Memory
TTITLE6=You Take Me For Granted
TTITLE7=Natural High
TTITLE8=Old Man From The Mountain
TTITLE9=Ramblin' Fever
EXTD=
EXTT0=
EXTT1=
EXTT2=
EXTT3=
EXTT4=
EXTT5=
EXTT6=
EXTT7=
EXTT8=
EXTT9=
PLAYORDER=
